<svg width="83" height="14" viewBox="0 0 83 14" fill="none" xmlns="http://www.w3.org/2000/svg">
<path d="M0 0.265625H2.46094C4.04948 0.265625 5.1224 0.338542 5.67969 0.484375C6.24219 0.630208 6.66927 0.869792 6.96094 1.20312C7.2526 1.53646 7.4349 1.90885 7.50781 2.32031C7.58073 2.72656 7.61719 3.52865 7.61719 4.72656V9.15625C7.61719 10.2917 7.5625 11.0521 7.45312 11.4375C7.34896 11.8177 7.16406 12.1172 6.89844 12.3359C6.63281 12.5495 6.30469 12.7005 5.91406 12.7891C5.52344 12.8724 4.9349 12.9141 4.14844 12.9141H0V0.265625ZM3.28906 2.42969V10.75C3.76302 10.75 4.05469 10.6562 4.16406 10.4688C4.27344 10.276 4.32812 9.75781 4.32812 8.91406V4C4.32812 3.42708 4.3099 3.0599 4.27344 2.89844C4.23698 2.73698 4.15365 2.61979 4.02344 2.54688C3.89323 2.46875 3.64844 2.42969 3.28906 2.42969ZM8.84375 0.265625H11.1719C12.724 0.265625 13.7734 0.325521 14.3203 0.445312C14.8724 0.565104 15.3203 0.872396 15.6641 1.36719C16.013 1.85677 16.1875 2.64062 16.1875 3.71875C16.1875 4.70312 16.0651 5.36458 15.8203 5.70312C15.5755 6.04167 15.0938 6.24479 14.375 6.3125C15.026 6.47396 15.4635 6.6901 15.6875 6.96094C15.9115 7.23177 16.0495 7.48177 16.1016 7.71094C16.1589 7.9349 16.1875 8.55729 16.1875 9.57812V12.9141H13.1328V8.71094C13.1328 8.03385 13.0781 7.61458 12.9688 7.45312C12.8646 7.29167 12.5859 7.21094 12.1328 7.21094V12.9141H8.84375V0.265625ZM12.1328 2.42969V5.24219C12.5026 5.24219 12.7604 5.19271 12.9062 5.09375C13.0573 4.98958 13.1328 4.65885 13.1328 4.10156V3.40625C13.1328 3.00521 13.0599 2.74219 12.9141 2.61719C12.7734 2.49219 12.513 2.42969 12.1328 2.42969ZM20.7578 0.265625V12.9141H17.4688V0.265625H20.7578ZM29.4219 0.265625V12.9141H26.5391L24.8281 7.16406V12.9141H22.0781V0.265625H24.8281L26.6719 5.96094V0.265625H29.4219ZM38.5859 0.265625L36.7031 5.97656L38.7656 12.9141H35.3672L34.0391 7.49219V12.9141H30.75V0.265625H34.0391V5.17969L35.5 0.265625H38.5859ZM49.5156 0.265625V12.9141H46.6328L44.9219 7.16406V12.9141H42.1719V0.265625H44.9219L46.7656 5.96094V0.265625H49.5156ZM58.3594 7.67188C58.3594 8.94271 58.3281 9.84375 58.2656 10.375C58.2083 10.901 58.0208 11.3828 57.7031 11.8203C57.3906 12.2578 56.9661 12.5938 56.4297 12.8281C55.8932 13.0625 55.2682 13.1797 54.5547 13.1797C53.8776 13.1797 53.2682 13.0703 52.7266 12.8516C52.1901 12.6276 51.7578 12.2943 51.4297 11.8516C51.1016 11.4089 50.9062 10.9271 50.8438 10.4062C50.7812 9.88542 50.75 8.97396 50.75 7.67188V5.50781C50.75 4.23698 50.7786 3.33854 50.8359 2.8125C50.8984 2.28125 51.0859 1.79688 51.3984 1.35938C51.7161 0.921875 52.1432 0.585938 52.6797 0.351562C53.2161 0.117188 53.8411 0 54.5547 0C55.2318 0 55.8385 0.111979 56.375 0.335938C56.9167 0.554688 57.3516 0.885417 57.6797 1.32812C58.0078 1.77083 58.2031 2.2526 58.2656 2.77344C58.3281 3.29427 58.3594 4.20573 58.3594 5.50781V7.67188ZM55.0703 3.51562C55.0703 2.92708 55.0365 2.55208 54.9688 2.39062C54.9062 2.22396 54.7734 2.14062 54.5703 2.14062C54.3984 2.14062 54.2656 2.20833 54.1719 2.34375C54.0833 2.47396 54.0391 2.86458 54.0391 3.51562V9.42188C54.0391 10.1562 54.0677 10.6094 54.125 10.7812C54.1875 10.9531 54.3281 11.0391 54.5469 11.0391C54.7708 11.0391 54.9141 10.9401 54.9766 10.7422C55.0391 10.5443 55.0703 10.0729 55.0703 9.32812V3.51562ZM71.9688 0.265625L70.5078 12.9141H66.3984C66.0234 10.9714 65.6927 8.76302 65.4062 6.28906C65.276 7.34635 64.9714 9.55469 64.4922 12.9141H60.4062L58.9375 0.265625H62.1328L62.4688 4.67969L62.8125 8.9375C62.9323 6.73438 63.2344 3.84375 63.7188 0.265625H67.1406C67.1875 0.635417 67.3073 2.02604 67.5 4.4375L67.8594 9.24219C68.0417 6.1849 68.3464 3.19271 68.7734 0.265625H71.9688ZM75.3047 2.52344L82.8203 5.64844V7.24219L75.3047 10.3828V8.32031L79.9453 6.45312L75.3047 4.59375V2.52344Z" fill="white"/>
</svg>
